<svg width="10" height="11" viewBox="0 0 10 11" fill="none" xmlns="http://www.w3.org/2000/svg">
  <path fill-rule="evenodd" clip-rule="evenodd" d="M1.74302 0.372772V0.382356C1.32998 0.382356 0.995524 0.717772 0.995524 1.12986C0.995524 1.54194 1.32998 1.87736 1.74302 1.87736H4.60748C5.02052 1.87736 5.35594 1.54194 5.35594 1.11931C5.35594 0.708189 5.02052 0.372772 4.60748 0.372772H1.74302ZM9.25636 6.20907H1.74302C1.32998 6.20907 0.995524 5.87366 0.995524 5.46157C0.995524 5.04949 1.32998 4.71311 1.74302 4.71311H9.25636C9.66844 4.71311 10.0039 5.04949 10.0039 5.46157C10.0039 5.87366 9.66844 6.20907 9.25636 6.20907ZM9.25651 10.5886H1.74317C1.45567 10.6269 1.17776 10.4831 1.02442 10.2436C0.87109 9.99438 0.87109 9.67813 1.02442 9.43855C1.17776 9.18938 1.45567 9.05522 1.74317 9.08397H9.25651C9.63888 9.1223 9.92734 9.44813 9.92734 9.84105C9.92734 10.2234 9.63888 10.5502 9.25651 10.5886Z" fill="#9796A1" />
</svg>